<?xml version="1.0" encoding="UTF-8"?>
<svg id="Layer_1" data-name="Layer 1" xmlns="http://www.w3.org/2000/svg" viewBox="0 0 976.46 355.65">
  <defs>
    <style>
      .cls-1 {
        fill: #006b78;
        stroke-width: 0px;
      }
    </style>
  </defs>
  <g>
    <path class="cls-1" d="M961.15,262.77c-1.23,0-2.44.15-3.6.44l-19.25-30.36c-.65-1-.37-2.35.6-3.01,18.08-12.25,30.03-33.32,30.03-57.2,0-37.72-29.8-68.41-66.44-68.41l-101.89.22c-3.39.01-6.13,2.84-6.13,6.33,0,1.75.69,3.34,1.8,4.48,1.12,1.15,2.66,1.86,4.36,1.86h6.16l95.72-.2c29.84,0,54.12,25,54.12,55.73,0,20.32-10.62,38.14-26.43,47.87-2.75,1.7-5.65,3.13-8.68,4.31-1.37.53-1.88,2.24-1.07,3.49l5.51,8.35,21.81,34.3c-1.21,2.24-1.9,4.83-1.9,7.58,0,8.69,6.86,15.75,15.3,15.75s15.31-7.06,15.31-15.75-6.87-15.77-15.31-15.77ZM961.15,284.14c-3,0-5.44-2.51-5.44-5.61s2.44-5.62,5.44-5.62,5.46,2.52,5.46,5.62-2.45,5.61-5.46,5.61Z"/>
    <path class="cls-1" d="M927.5,286.6c-.48-2.9-3.45-5.24-6.31-5.24h-9.32c-.9,0-1.76-.44-2.29-1.21l-35.47-50.53c-.53-.75-1.37-1.19-2.27-1.19l-18.51.03c-2.56.01-4.63,2.14-4.63,4.78v48.12h-38.67c-1.8,0-3.25-1.5-3.25-3.35v-114.4c5.36-2.45,9.09-7.98,9.09-14.4,0-8.69-6.86-15.75-15.3-15.75s-15.31,7.06-15.31,15.75c0,6.46,3.79,12.01,9.2,14.45v125.83c0,1.84,1.45,3.35,3.25,3.35h63.3v-49.81c0-1.04.83-1.89,1.84-1.89h3.04c.7-.01,1.35.33,1.76.91l29.91,42.62,5.67,8.07c.57.82,1.49,1.31,2.48,1.31h15.72c1.7,0,3.24-.71,4.36-1.86,1.34-1.38,2.07-3.4,1.71-5.58ZM803.58,153.88c-.86.61-1.9.95-3,.95s-2.11-.33-2.97-.91c-1.49-.99-2.49-2.74-2.49-4.71,0-3.1,2.45-5.61,5.46-5.61s5.44,2.51,5.44,5.61c0,1.95-.97,3.68-2.44,4.67Z"/>
    <path class="cls-1" d="M890.87,213.34h-45.49c-6.42,0-11.64-5.37-11.64-11.98v-49.65c0-6.61,5.22-11.98,11.64-11.98h45.49c19.71,0,35.74,16.51,35.74,36.81s-16.03,36.81-35.74,36.81ZM845.38,149.87c-.98,0-1.78.82-1.78,1.83v49.65c0,1.01.8,1.84,1.78,1.84h45.49c14.27,0,25.89-11.96,25.89-26.66s-11.61-26.66-25.89-26.66h-45.49Z"/>
  </g>
  <g>
    <path class="cls-1" d="M593.02,222.86l-20.5-51.65c-.53-1.34-1.81-2.2-3.25-2.2s-2.72.86-3.25,2.2l-20.5,51.65c-.43,1.08-.29,2.29.36,3.24.65.96,1.73,1.53,2.89,1.53h41c1.16,0,2.24-.57,2.89-1.53.65-.96.79-2.17.36-3.24ZM559.96,216.56l9.32-23.47,9.32,23.47h-18.63Z"/>
    <path class="cls-1" d="M679.35,285.63l-73.47-173.34-.84-2c-1.68-3.97-5.55-6.53-9.87-6.53h-54.64c-3.19,0-5.79,2.59-5.79,5.77s2.6,5.78,5.79,5.78h52.97c.66,0,1.25.39,1.51,1l69.44,163.81c.17.41.02.73-.08.88-.11.16-.34.42-.78.42h-39.24c-2.65-6.63-9.42-10.7-16.7-9.81-7.15.87-12.95,6.68-13.78,13.83-.53,4.51.9,9.03,3.9,12.4,3.01,3.38,7.33,5.31,11.85,5.31,6.63,0,12.51-4.11,14.82-10.18h50.04c1.78,0,3.43-.88,4.42-2.37.98-1.48,1.16-3.34.46-4.98ZM609.7,293.69c-3.46,0-6.26-2.8-6.26-6.25s2.8-6.25,6.26-6.25,6.27,2.8,6.27,6.25-2.8,6.25-6.27,6.25Z"/>
    <path class="cls-1" d="M579.67,258.12h-41.32c-2.38,0-4.52,1.42-5.45,3.6l-7.54,17.8c-.46,1.08-1.51,1.77-2.68,1.77h-47.75c-.35,0-.54-.21-.63-.33-.08-.13-.2-.38-.06-.71l54.53-128.66c4.58.14,9.03-1.78,12.1-5.2,2.96-3.3,4.37-7.73,3.88-12.16-.8-7.15-6.58-12.91-13.74-13.71-4.44-.49-8.88.92-12.19,3.87-3.32,2.96-5.22,7.19-5.22,11.62s1.77,8.4,4.92,11.34l-58.75,138.6c-.61,1.43-.46,3.05.41,4.34.86,1.29,2.3,2.06,3.85,2.06h63.43c2.73,0,5.19-1.62,6.25-4.14l7.54-17.8c.32-.75,1.06-1.24,1.88-1.24h36.53c3.06,0,5.55-2.48,5.55-5.54s-2.49-5.53-5.55-5.53ZM529.28,129.64c3.49,0,6.32,2.83,6.32,6.31s-2.83,6.32-6.32,6.32-6.33-2.83-6.33-6.32,2.83-6.31,6.33-6.31Z"/>
  </g>
  <g>
    <path class="cls-1" d="M748.59,237.85c-2.67,0-4.84,2.16-4.84,4.83v35.02c0,2.98-2.42,5.4-5.42,5.4h-12.36c-2.99,0-5.42-2.42-5.42-5.4v-89.64c3.46-1.71,5.84-5.27,5.84-9.38,0-5.77-4.71-10.47-10.49-10.47s-10.49,4.7-10.49,10.47c0,3.96,2.21,7.41,5.47,9.19v99.48c0,2.98,2.42,5.4,5.42,5.4h31.71c2.99,0,5.42-2.42,5.42-5.4v-44.67c0-2.67-2.17-4.83-4.84-4.83ZM715.91,174.57c2.27,0,4.11,1.84,4.11,4.1s-1.84,4.1-4.11,4.1-4.11-1.84-4.11-4.1,1.84-4.1,4.11-4.1Z"/>
    <path class="cls-1" d="M753.43,209.56v-100.4c0-2.98-2.43-5.4-5.42-5.4h-31.71c-2.99,0-5.42,2.42-5.42,5.4v44.95c0,2.67,2.17,4.83,4.84,4.83s4.84-2.16,4.84-4.83v-35.3c0-2.98,2.42-5.4,5.42-5.4h12.36c2.99,0,5.42,2.42,5.42,5.4v91.31c-3.06,1.83-5.12,5.17-5.12,8.98,0,5.77,4.71,10.47,10.49,10.47s10.49-4.7,10.49-10.47c0-4.25-2.55-7.91-6.2-9.55ZM749.13,223.21c-2.27,0-4.11-1.84-4.11-4.1s1.84-4.1,4.11-4.1,4.11,1.84,4.11,4.1-1.84,4.1-4.11,4.1Z"/>
  </g>
  <path class="cls-1" d="M433.73,122.7c-1.41-11.03-10.87-19.34-22.02-19.34h-100.25c-22.63,0-40.97,18.29-40.97,40.88v50.48c0,2.97,2.5,5.37,5.58,5.37h0c3.08,0,5.58-2.41,5.58-5.37v-50.48c0-16.44,13.35-29.75,29.81-29.75h100.25c5.43,0,10.08,3.99,10.92,9.31v37.67c0,5.3-4.31,9.6-9.64,9.6h-3.13c-3.93,0-7.32-2.36-8.82-5.74-.88-2.02-2.89-3.33-5.1-3.33-4,0-6.73,4.08-5.14,7.73,3.19,7.34,10.52,12.46,19.06,12.46h3.13c11.49,0,20.79-9.28,20.79-20.73v-38.41l-.05-.35ZM412.98,204.23h-3.13c-11.47,0-20.78,9.28-20.78,20.74v17.59c0,2.95-2.39,5.33-5.32,5.33h-57.37c-6.11,0-11.06-4.95-11.06-11.03v-77.73c0-6.09,4.95-11.03,11.06-11.03h44.13c2.39,5.4,7.81,9.18,14.09,9.18,8.52,0,15.42-6.89,15.42-15.39s-6.9-15.39-15.42-15.39c-6.78,0-12.53,4.4-14.6,10.47h-43.62c-12.28,0-22.21,9.92-22.21,22.16v77.73c0,12.24,9.94,22.16,22.21,22.16h61.76c6.67,0,12.09-5.4,12.09-12.05v-21.99c0-5.31,4.31-9.62,9.62-9.62h3.13c5.32,0,9.64,4.31,9.64,9.62v47.21c-.84,5.33-5.48,9.31-10.92,9.31h-103.4c-14.73,0-26.67-11.92-26.67-26.62v-16.72c-1.69.58-3.52.9-5.42.9-2.02,0-3.95-.36-5.74-1.02v16.85c0,20.85,16.94,37.74,37.83,37.74h103.4c11.15,0,20.62-8.32,22.02-19.34l.05-.35v-47.95c0-11.46-9.31-20.74-20.79-20.74ZM384.61,135.61c3.48,0,6.3,2.8,6.3,6.27s-2.83,6.28-6.3,6.28-6.29-2.82-6.29-6.28,2.81-6.27,6.29-6.27Z"/>
  <g>
    <g>
      <path class="cls-1" d="M117.07,76.87c-17.34,0-31.56-14-31.67-31.16-.11-17.53,13.78-32.03,30.71-32.08,17.23-.04,30.75,13.05,30.78,29.79.03,19.46-12.45,33.46-29.82,33.46ZM228.29,185.22c-.03,17.71-13.45,31.4-30.78,31.41-17.61,0-31.65-13.9-31.65-31.35,0-17.49,13.64-31.42,30.82-31.48,18.14-.05,31.63,13.36,31.61,31.42ZM309.29,72.44c-.19,2.57-1.62,4.16-4.22,4.19-8.06.08-16.12.08-24.18,0-.83-.02-1.82-.55-2.45-1.15-4.37-4.19-8.71-8.42-12.93-12.76-.76-.79-1.29-2.15-1.31-3.26-.1-9.53-.11-19.07,0-28.6.02-1.18.66-2.62,1.48-3.48,4.07-4.22,8.24-8.34,12.51-12.36.86-.8,2.28-1.41,3.46-1.42,7.29-.13,14.58-.08,21.87-.06,4.42,0,5.77,1.4,5.79,5.91v3.37c-6.98,0-13.67.09-20.36-.05-2.69-.06-4.55,1.03-6.66,2.62-7.29,5.48-9.57,12.44-8.99,21.49.38,5.85,1.76,10.16,5.76,14.53,4.06,4.45,8.1,6.66,14.14,6.07,5.21-.51,10.5-.1,16.1-.1,0,1.84.09,3.45-.02,5.04ZM310.5,59.12h-15.17c-7.59,0-13.76-6.19-13.76-13.81,0-3.78,1.52-7.21,3.98-9.71,2.46-2.49,5.86-4.05,9.63-4.1.86,0,12.69-.02,14.96-.02.21-.19.4-.35.6-.51,5.22-4.38,12.26-5.46,18.4-3.05-1.98-2.02-4.31-3.67-6.88-4.88-1.06-.17-2.41-.25-4.32-.36,0-1.55.03-3.14,0-4.73-.15-7.4-5.61-12.97-12.97-13.05-8.73-.08-17.47-.13-26.2.07-1.62.04-3.53.96-4.75,2.08-4.87,4.5-9.46,9.31-14.29,13.85-.89.84-2.51,1.48-3.69,1.34-15.34-1.71-30.68-3.57-46.01-5.37-3.49-.41-5.42.9-5.68,3.69-.25,2.65,1.09,4.34,4.21,4.76,7.22.96,14.47,1.78,21.71,2.66,8.19.99,16.38,1.97,24.79,2.98v28.32c-3.74.53-7.59,1.1-11.44,1.62-21.2,2.85-42.39,5.65-63.58,8.58-2.21.31-3.25-.33-4.28-2.17-7.66-13.46-15.38-26.88-23.14-40.27-1.72-2.96-3.66-5.78-5.75-9.06,6.37.75,12.43,1.46,18.47,2.18,7.62.9,15.23,1.85,22.86,2.7,3.3.37,5.65-1.29,5.9-3.97.22-2.38-1.62-4.2-4.88-4.6-14.94-1.82-29.91-3.49-44.84-5.41-7.02-.9-13.96-2.4-20.97-3.39-16.5-2.35-30.1,3.11-39.59,16.8-9.62,13.86-9.56,28.74-1.49,43.38,7.89,14.31,16.24,28.37,24.39,42.54,2.02,3.5,4,7.02,6.06,10.49,1.78,2.98,4.09,3.81,6.42,2.45,2.28-1.34,2.7-3.86,1.02-6.8-5.4-9.43-10.83-18.84-16.25-28.26-.52-.91-1.02-1.84-1.86-3.37,12.28,4.15,23.71,3.27,34.46-2.95,10.8-6.24,17.37-15.68,19.93-28.72,18.56,32.27,36.79,63.95,55.48,96.44-12.48-4.1-23.89-3.24-34.62,3.03-10.72,6.26-17.25,15.6-19.78,28.37-.74-1.12-1.31-1.9-1.78-2.73-8.16-14.16-16.3-28.33-24.46-42.51-.38-.66-.74-1.35-1.18-1.98-1.45-2.05-3.8-2.68-5.78-1.59-2.12,1.17-2.88,3.64-1.59,5.99,2.7,4.88,5.54,9.68,8.31,14.52.57,1,1.12,2,1.81,3.24-3.15,1.89-6.19,3.7-9.22,5.52-6.18,3.7-12.34,7.41-18.52,11.11-22.99,13.76-26.57,43.83-7.43,62.65.22.22.56.32.91.43h17.13c-18.1-5.11-25.81-26.13-19.09-41.62,2.16-5,5.36-9.21,9.94-12.07,10.01-6.25,20.17-12.26,30.51-18.51.62,1,1.19,1.84,1.7,2.72,8.02,13.91,15.85,27.94,24.1,41.71,13.6,22.71,45.42,26.15,63.35,7.04,11.86-12.64,14.4-31.96,6.02-47.19-4.53-8.24-9.33-16.33-14-24.49,14.41,7.07,23.84,18.17,26.94,33.93,5.28,26.77-11.85,52.6-37.96,58.48h21.83c.36-.26.63-.46.91-.66,19.29-13.97,27.29-33.12,23.73-56.38-3.61-23.62-17.3-39.52-40.11-47.19-1.45-.49-3.04-1.67-3.8-2.97-8.88-15.2-17.61-30.47-26.38-45.73-.47-.82-.88-1.67-1.29-2.46.2-.17.25-.27.32-.28,24.52-3.31,49.03-6.64,73.57-9.85,1.17-.15,2.8.52,3.7,1.37,4.83,4.55,9.42,9.34,14.27,13.87,1.15,1.07,2.96,1.96,4.49,1.99,8.82.19,17.66.17,26.48.05,7.44-.09,12.79-5.6,12.93-13.06.03-1.58,0-3.17,0-5.2,1.31.39,2.48.51,3.54.43.09-.05.19-.11.29-.15,2.75-1.24,5.23-2.96,7.33-5.09-2.19.87-4.47,1.3-6.75,1.3-4.26,0-8.48-1.5-11.87-4.42Z"/>
      <path class="cls-1" d="M130.2,202.19c-2.55,0-5.09-.02-7.64-.02,2.55,0,5.09.02,7.64.02,2.19,0,4.38-.02,6.56-.02-2.19,0-4.37,0-6.56,0Z"/>
      <path class="cls-1" d="M147.82,207.55c-.05-3.88-1.57-5.3-5.56-5.34-.74,0-1.48-.02-2.22,0-1.09,0-2.19,0-3.29,0-2.19,0-4.37,0-6.56,0-2.55,0-5.09-.02-7.64-.02-1.76,0-3.53,0-5.29.05-3.35.07-4.88,1.68-4.91,5.04-.05,5.1-.05,10.19,0,15.29.03,3.54,1.52,5.12,5.08,5.14,8.43.07,16.87.07,25.29,0,3.58-.03,5.05-1.54,5.1-5.15.08-5,.07-10.01,0-15ZM139.04,218.78c-.62.11-1.08.26-1.53.26-5.36.02-10.71.02-16.3.02v-7.99h17.83v7.71Z"/>
      <path class="cls-1" d="M197.3,162.96c-11.57-.13-21.95,10.1-22.1,21.79-.15,12.08,9.9,22.4,21.91,22.52,11.83.11,22.2-10.09,22.24-21.89.05-12.11-9.96-22.27-22.06-22.41ZM197.5,198.58c-7.02.17-13.39-6.03-13.66-13.28-.26-7.14,6.09-13.58,13.5-13.66,6.91-.07,13.3,6.43,13.37,13.61.06,6.97-6.07,13.17-13.21,13.34Z"/>
      <path class="cls-1" d="M116.67,22.83c-12.06,0-22.16,9.97-22.2,21.93-.04,12.75,9.44,22.47,22.01,22.53,12.6.08,22.24-9.49,22.35-22.21.11-12.09-10-22.23-22.17-22.25ZM116.65,58.71c-7.5,0-13.57-6.07-13.54-13.52.04-7.8,5.99-13.74,13.69-13.64,7.59.09,13.37,5.97,13.4,13.64.04,7.44-6.05,13.52-13.55,13.52Z"/>
    </g>
    <g>
      <path class="cls-1" d="M120.96,146.88c-1.2-1.97-2.88-1.2-4.49-.23-8.35,5.04-17.04,9.58-24.99,15.18-6.29,4.43-12.33,5.79-19.31,2.64-.08-.03-.17-.03-.26-.06-1.92-.77-3.58-.36-5.35.72-11.66,7.07-23.38,14.04-35.08,21.04l-2.4,1.44-1.64-2.76c10.1-6.04,19.76-12.47,30.01-17.74,7.46-3.84,12.17-8.83,12.77-17.33.13-1.74,1.2-2.67,2.63-3.51,10.76-6.38,21.48-12.84,32.23-19.23,1.57-.94,2.79-2.1,1.74-3.94-1.12-1.98-2.8-1.5-4.46-.5-11.39,6.84-22.82,13.63-34.17,20.54-1.05.63-1.96,1.95-2.34,3.14-.99,3.04-1.51,6.23-2.49,9.27-.37,1.17-1.27,2.46-2.3,3.08-11.95,7.26-23.97,14.39-35.94,21.61-1.28.77-2.31.96-3.8.4-7.4-2.76-15.29,1.31-17.4,8.83-2.09,7.46,2.38,15.02,9.9,16.71,7.61,1.71,14.93-3.29,16.05-11.13.22-1.56.84-2.41,2.13-3.18,11.95-7.09,23.88-14.21,35.76-21.41,1.54-.94,2.9-1.12,4.58-.61,2.81.84,5.65,1.65,8.53,2.12,1.39.23,3.16.06,4.34-.63,11.32-6.63,22.54-13.41,33.81-20.13,1.69-1.01,3.2-2.21,1.92-4.31ZM20.97,200.17c-3.81,2.31-8.99.97-11.26-2.89-2.27-3.86-.92-9.06,2.93-11.29,3.76-2.18,8.82-.88,11.1,2.84,2.32,3.79,1.04,9.06-2.77,11.35Z"/>
      <path class="cls-1" d="M70.59,197.04c.84-1.78.39-3.74-1.24-4.98-.47-.36-.54-.67-.42-1.2.65-2.93,1.24-5.87,1.91-8.8.1-.44.44-.94.81-1.19,2.43-1.64,4.91-3.2,7.33-4.85.38-.26.74-.88.7-1.29-.03-.32-.67-.72-1.1-.83-2.14-.52-4.3-.91-6.45-1.41-.77-.18-1.37-.06-2.02.38-4.14,2.73-8.29,5.45-12.47,8.12-.94.6-1.61,1.25-1.66,2.41-.03.71-.38,1.01-1.11,1.19-1.82.44-2.98,2.14-2.93,4.02.05,1.8,1.45,3.45,3.22,3.81,1.8.37,3.66-.57,4.45-2.24.8-1.7.38-3.64-1.07-4.86-.91-.76-.83-1.87.21-2.55,4.03-2.64,8.07-5.28,12.12-7.9.27-.17.64-.34.93-.29,1.34.23,2.68.55,4.32.9-2.1,1.36-3.89,2.58-5.74,3.7-.9.54-1.37,1.21-1.57,2.25-.58,3.02-1.27,6.01-1.88,9.02-.11.53-.29.79-.87.92-1.97.47-3.19,2.1-3.14,4.07.04,1.82,1.39,3.42,3.21,3.8,1.83.38,3.66-.52,4.46-2.2ZM57.92,188.85c-.22,1.03-1.32,1.76-2.35,1.54-1.05-.22-1.73-1.28-1.51-2.35.23-1.09,1.23-1.74,2.32-1.52,1.08.23,1.76,1.26,1.54,2.32ZM65.03,194.91c.21-1.08,1.24-1.77,2.3-1.56,1.06.21,1.77,1.26,1.57,2.32-.2,1.05-1.26,1.76-2.32,1.55-1.07-.21-1.76-1.23-1.55-2.31Z"/>
      <path class="cls-1" d="M83.7,91.19c1.05-.68,2.36-2.25,2.21-3.2-.16-.98-1.83-2.12-3.04-2.46-6.9-1.91-13.86-3.56-20.78-5.41-.97-.26-2.16-.85-2.65-1.66-4.34-7.07-8.53-14.23-12.85-21.49,3.66-5.64,3.67-10.26.14-14.13-3.11-3.42-8.05-4.33-12.02-2.21-4.21,2.24-6.34,6.81-5.3,11.33,1.23,5.31,4.92,7.57,12.85,7.83,4.16,7.01,8.46,14.01,12.49,21.15,1.36,2.41,3.08,3.65,5.73,4.22,4.72,1,9.37,2.32,14.04,3.52.58.15,1.13.43,2.05.79-3.21,1.92-6,3.64-8.84,5.25-.6.34-1.5.53-2.15.37-12.13-3.03-24.24-6.09-36.35-9.23-2.33-.6-3.34-3.43-2.12-5.39,2.69-4.3,2.19-9.35-1.26-12.84-3.24-3.27-8.46-3.91-12.38-1.52-3.82,2.32-5.74,7.24-4.5,11.49,1.38,4.7,5.63,7.76,10.61,7.25,1.78-.18,2.46.51,3.16,1.82.97,1.82,1.91,3.5,4.29,4.08,12.81,3.14,25.57,6.48,38.38,9.62,1.18.29,2.77.02,3.85-.58,4.89-2.74,9.71-5.62,14.43-8.64ZM35.12,52.29c-1.45-2.34-.75-5.36,1.58-6.8,2.33-1.45,5.37-.75,6.81,1.55,1.42,2.26.68,5.41-1.6,6.84-2.3,1.44-5.34.73-6.79-1.59ZM14.47,77.29c-1.34-2.36-.52-5.46,1.82-6.77,2.32-1.3,5.48-.43,6.77,1.88,1.34,2.39.5,5.35-1.9,6.73-2.41,1.39-5.31.59-6.69-1.84Z"/>
      <path class="cls-1" d="M91.87,117.33c2.29-1.38,4.71-2.6,6.81-4.23.76-.59,1.28-2.29,1.02-3.25-.43-1.54-1.97-1.77-3.43-1.14-.71.31-1.36.75-2.03,1.15-7.85,4.7-15.69,9.4-23.54,14.08-3.26,1.94-6.39,4.84-9.88,5.42-3.4.56-7.16-1.46-10.82-2.01-1.55-.23-3.47,0-4.8.76-7.93,4.55-15.76,9.3-23.57,14.05-1.31.79-2.22.97-3.63,0-4.04-2.78-9.29-2.24-12.62.99-3.43,3.34-4.19,8.54-1.84,12.64,2.31,4.04,7.47,6.08,11.84,4.67,4.67-1.51,7.6-5.76,7.1-10.78-.16-1.64.42-2.3,1.64-3.01,4.76-2.79,9.47-5.67,14.23-8.49,3.34-1.97,6.53-4.92,10.11-5.54,3.38-.58,7.18,1.3,10.8,2.1.08.02.17.07.25.05,1.46-.23,3.14-.09,4.35-.78,5.71-3.22,11.29-6.67,16.91-10.03l11.11-6.65ZM14.95,154.93c-2.42,1.45-5.56.64-6.94-1.77-1.37-2.4-.48-5.58,1.94-6.94,2.43-1.36,5.58-.46,6.9,1.98,1.27,2.37.44,5.34-1.89,6.74Z"/>
      <path class="cls-1" d="M45.91,160.95c-.13-1,.22-1.42.98-1.88,2.95-1.8,5.87-3.66,8.79-5.52,1.98-1.26,4.43-2.2,5.76-3.97,1.25-1.68,1.25-4.28,1.94-6.43.22-.69.73-1.44,1.32-1.83,3.01-2,6.09-3.88,9.14-5.81l9.55-6.01c.9-.56,1.54-1.3.89-2.35-.66-1.06-1.57-.78-2.48-.21-6.57,4.15-13.17,8.27-19.71,12.46-.6.39-1.11,1.15-1.33,1.85-.56,1.77-.87,3.62-1.43,5.39-.22.69-.72,1.45-1.31,1.83-4.25,2.76-8.56,5.42-12.83,8.14-.7.45-1.2.53-1.98.03-2.45-1.58-5.43-1.17-7.43.86-1.84,1.87-2.17,4.96-.78,7.26,1.44,2.37,4.41,3.42,7.09,2.49,2.53-.88,4.19-3.47,3.83-6.3ZM37.59,163.24c-.84-1.32-.48-3.09.82-3.99,1.35-.93,3.18-.6,4.09.74.9,1.32.52,3.21-.83,4.1-1.34.89-3.21.5-4.08-.86Z"/>
      <path class="cls-1" d="M79.13,104.64h0c3.55-2.13,7.13-4.21,10.64-6.4,1.93-1.2,2.24-3,.92-4.3-1.37-1.33-2.67-.65-3.99.13-6,3.59-12.02,7.13-17.97,10.79-1.52.93-2.86,1.16-4.59.71-10.25-2.69-20.52-5.33-30.84-7.78-1.48-.36-3.42-.02-4.8.67-3.3,1.66-6.42,3.69-9.57,5.65-1.14.72-1.94.82-3.19-.01-4.25-2.83-9.33-2.29-12.82,1.13-3.26,3.21-3.87,8.38-1.46,12.41,2.49,4.15,7.21,5.9,11.85,4.38,4.49-1.46,7.27-5.68,6.77-10.67-.15-1.49.27-2.17,1.47-2.83,2.55-1.43,5.1-2.91,7.54-4.53,1.63-1.08,3.12-1.3,5.05-.79,10.17,2.69,20.36,5.29,30.58,7.73,1.49.35,3.43.02,4.81-.67,3.31-1.67,6.41-3.74,9.59-5.64ZM12.76,116.67c-2.27,1.44-5.35.71-6.8-1.62-1.48-2.38-.81-5.3,1.55-6.78,2.34-1.46,5.36-.78,6.8,1.52,1.41,2.25.69,5.45-1.56,6.88Z"/>
      <path class="cls-1" d="M30.81,116.22c-1.87,1.88-2.23,4.91-.86,7.23,1.47,2.49,4.27,3.57,6.98,2.69,3.05-.98,4.31-3.32,4.02-7.58,2.04-1.27,4.1-2.61,6.22-3.83.44-.25,1.17-.18,1.72-.06,6.22,1.43,12.42,2.92,18.65,4.3.8.18,1.87.04,2.56-.37,3.95-2.35,7.84-4.8,11.71-7.28.51-.33,1.03-.9,1.19-1.46.11-.39-.28-1.26-.62-1.37-.59-.19-1.43-.15-1.95.16-3.5,2.1-6.98,4.24-10.4,6.48-1.12.73-2.13.87-3.42.55-5.95-1.46-11.93-2.8-17.87-4.24-1.14-.28-2.05-.14-3.02.51-2.09,1.38-4.23,2.66-6.42,4.03-3.38-2.12-6.25-2.01-8.48.23ZM33.58,117.95c1.38-.86,3.18-.44,4.02.92.83,1.34.39,3.24-.95,4.06-1.36.85-3.15.41-4.01-.97-.87-1.41-.47-3.14.94-4.01Z"/>
      <path class="cls-1" d="M111.92,139.95c-4.76,2.81-9.49,5.66-14.23,8.5-4.74,2.84-9.48,5.66-14.21,8.52-1.63.98-3.28,1.59-4.45-.44-1.16-2.04.28-3.13,1.88-4.09,9.49-5.66,18.97-11.33,28.44-17.03,1.62-.97,3.3-1.7,4.5.26,1.3,2.11-.22,3.28-1.92,4.28Z"/>
    </g>
    <path class="cls-1" d="M322.39,60.98c-3.74,0-7.45-1.34-10.41-3.97-.41-.37-.81-.76-1.18-1.16-5.84-6.38-5.44-16.39.9-22.32.25-.23.46-.42.68-.6,5.07-4.24,12.15-4.89,17.85-1.68h.04l.66.42c1.17.74,2.24,1.64,3.19,2.67,1.72,1.89,2.97,4.18,3.61,6.63.71,2.67.7,5.5-.02,8.19-.76,2.87-2.31,5.46-4.49,7.5-.52.49-1.08.95-1.68,1.38l-.21.14c-.14.08-.27.16-.39.23-.05.03-.07.05-.1.07l-.34.24c-2.52,1.51-5.32,2.25-8.1,2.25ZM322.53,34.65c-2.39,0-4.78.83-6.73,2.46-.17.14-.31.27-.46.4-4.16,3.89-4.43,10.48-.58,14.69.25.27.51.53.78.77,3.35,2.97,8.17,3.44,12.04,1.2.17-.13.36-.26.54-.37.11-.07.25-.15.38-.23.36-.26.71-.55,1.02-.84,1.45-1.35,2.47-3.06,2.97-4.95h0c.48-1.79.48-3.65.02-5.41-.43-1.64-1.23-3.11-2.37-4.36-.57-.63-1.22-1.18-1.92-1.64l-.18-.11c-1.69-1.07-3.61-1.6-5.51-1.6Z"/>
    <path class="cls-1" d="M381.5,62.14c-.15-.75-.61-1.41-1.27-1.8-.65-.39-1.45-.49-2.18-.26l-28.3,8.88c-1.31-2.17-3.18-5.21-5.13-8.38l-1.39-2.27c-.48-.79-1.34-1.27-2.26-1.28h-.03c-.91,0-1.76.46-2.26,1.24-.93,1.45-2,2.79-3.19,3.98h0c-2.1,2.13-4.58,3.85-7.33,5.09-.1.05-.2.1-.29.15-.59.35-1.02.93-1.21,1.6-.22.78-.07,1.61.39,2.28l1.76,2.51c4.34,6.2,8.83,12.61,11.49,16.08.59.77,1.92,2.09,4.02,2.09,1.04,0,2.27-.32,3.7-1.19,4.54-2.76,9.09-5.51,13.63-8.25,5.03-3.03,10.06-6.06,15.07-9.11,5.08-3.08,5.97-5.21,4.79-11.36ZM373.92,68.87h0c-5.01,3.05-10.03,6.08-15.05,9.1-4.56,2.75-9.11,5.49-13.66,8.26-.34.21-.57.31-.72.36-2.58-3.39-7-9.7-11.28-15.81,2.82-1.65,5.36-3.77,7.5-6.26,2.32,3.77,4.44,7.22,5.49,9.02.63,1.08,1.93,1.58,3.12,1.21l27.27-8.56c-.08,1.1-.79,1.53-2.69,2.68Z"/>
    <path class="cls-1" d="M383.31,26.69c-.08-1.18-.69-2.92-2.08-3.92-7.01-5.07-14.16-10.19-21.09-15.14-2.91-2.09-5.81-4.16-8.71-6.24-3.09-2.23-6.34-1.74-8.69,1.34-.26.35-.59.71-.95,1.09-.22.25-.45.49-.65.73-2.13,2.44-8.65,8.75-13.89,13.82-.64.63-.94,1.53-.78,2.42.15.89.75,1.64,1.56,2,.19.09.39.17.58.27,2.57,1.21,4.89,2.87,6.88,4.88,1.19,1.21,2.27,2.55,3.2,4.01.44.69,1.17,1.14,1.98,1.23.81.08,1.62-.21,2.19-.8,3.97-4.05,6.84-7.01,8.55-9,8.86,3.57,17.63,7.1,26.86,10.83l1.38.56c.32.13.66.19,1,.19.53,0,1.05-.15,1.51-.46.74-.49,1.19-1.34,1.19-2.23,0-.56,0-1.1.02-1.61.02-1.37.05-2.66-.06-3.95ZM351.58,17.61c-.33-.13-.67-.19-1.01-.19-.86,0-1.69.42-2.21,1.16-.92,1.34-4.29,4.86-7.09,7.72-2.14-2.64-4.7-4.89-7.59-6.66,5.46-5.3,9.69-9.45,11.52-11.55.18-.21.37-.41.56-.62.4-.44.86-.93,1.27-1.48.35-.46.56-.57.56-.59.05,0,.27.06.7.37,2.91,2.09,5.82,4.16,8.73,6.25,6.86,4.9,13.94,9.98,20.9,15,0,.03.02.06.02.09.03.38.05.76.06,1.15-9.04-3.65-17.67-7.13-26.42-10.65Z"/>
    <path class="cls-1" d="M125.59,292.87h-35.84c-3.8,0-7.37-1.86-9.8-5.11-2.85-3.82-3.73-8.92-2.35-13.66l8.5-29.21c1.99-6.85,7.64-11.45,14.05-11.45h126.49c13.39,0,25.31,9.76,29.67,24.29l2.95,9.82c1.88,6.26.76,13.03-2.99,18.1-3.14,4.24-7.77,6.68-12.69,6.68h-45.34l-22.53.26c-3.22.03-5.93-2.43-6.37-5.87-.46-3.56,1.58-6.75,4.85-7.56l31.42-7.86-5.36-7.96c-.8-1.18-1.92-1.86-3.08-1.86h-42.48c-8.66,0-16.73,5.6-21.05,14.61l-8.04,16.78ZM100.14,241.16c-2.96,0-5.64,2.37-6.66,5.89l-8.5,29.21c-.69,2.38-.26,5.01,1.12,6.86.56.75,1.79,2.02,3.64,2.02h31l5.94-12.4c5.61-11.71,16.33-18.99,27.98-18.99h42.48c3.7,0,7.23,1.96,9.45,5.25l6.17,9.15c1.28,1.89,1.51,4.39.61,6.53-.82,1.94-2.46,3.32-4.42,3.73l-25.42,6.36,14.64-.17h45.38c3.37,0,5.53-2.23,6.51-3.56,2.27-3.07,2.96-7.39,1.8-11.27l-2.95-9.82c-3.37-11.24-12.34-18.8-22.3-18.8h-126.49Z"/>
  </g>
  <g>
    <path class="cls-1" d="M48.89,353.18c-1.8-1.62-2.69-3.76-2.69-6.43v-16.07c0-2.7.9-4.84,2.69-6.43,1.8-1.58,4.18-2.38,7.14-2.38s5.41.79,7.22,2.38c1.82,1.59,2.72,3.73,2.72,6.43v.57c0,.16-.06.3-.18.42-.12.13-.27.19-.44.19l-4.87.19c-.42,0-.63-.19-.63-.57v-1.18c0-1.1-.35-1.99-1.05-2.69-.7-.69-1.62-1.04-2.77-1.04s-2.02.35-2.72,1.04c-.7.69-1.05,1.59-1.05,2.69v16.87c0,1.1.35,2,1.05,2.68.7.69,1.6,1.04,2.72,1.04s2.08-.35,2.77-1.04c.7-.69,1.05-1.58,1.05-2.68v-1.18c0-.15.06-.29.18-.4.12-.11.27-.17.44-.17l4.87.19c.17,0,.32.05.44.16.12.11.18.24.18.4v.56c0,2.67-.91,4.82-2.72,6.43-1.81,1.62-4.22,2.43-7.22,2.43s-5.35-.81-7.14-2.43Z"/>
    <path class="cls-1" d="M88.82,326.79c-.12.11-.27.17-.44.17h-11.3c-.18,0-.26.08-.26.24v8.91c0,.15.09.23.26.23h6.7c.17,0,.32.06.44.17s.18.24.18.4v3.63c0,.15-.06.29-.18.4s-.27.16-.44.16h-6.7c-.18,0-.26.08-.26.24v8.95c0,.15.09.23.26.23h11.3c.17,0,.32.06.44.17.12.11.18.24.18.4v3.58c0,.16-.06.29-.18.4-.12.11-.27.17-.44.17h-17.01c-.17,0-.33-.05-.45-.17-.12-.11-.18-.24-.18-.4v-31.85c0-.15.06-.29.18-.4.12-.11.27-.17.45-.17h17.01c.17,0,.32.06.44.17.12.11.18.24.18.4v3.58c0,.16-.06.29-.18.4Z"/>
    <path class="cls-1" d="M108.56,322.41c.12-.11.27-.17.44-.17h4.76c.17,0,.32.06.44.17.12.11.18.24.18.4v31.85c0,.16-.06.29-.18.4-.12.11-.27.17-.44.17h-5.5c-.35,0-.58-.16-.68-.47l-7.8-19.98c-.04-.09-.1-.13-.18-.12-.09.02-.13.07-.13.17l.05,19.84c0,.16-.06.29-.18.4-.12.11-.27.17-.44.17h-4.76c-.17,0-.33-.05-.45-.17-.12-.11-.18-.24-.18-.4v-31.85c0-.15.06-.29.18-.4.12-.11.27-.17.45-.17h5.39c.35,0,.57.16.68.47l7.85,19.84c.04.09.1.13.18.12.09-.02.13-.07.13-.16v-19.7c0-.15.06-.29.18-.4Z"/>
    <path class="cls-1" d="M139.27,322.41c.12.11.18.24.18.4v3.58c0,.16-.06.29-.18.4-.12.11-.27.17-.44.17h-6.65c-.18,0-.26.08-.26.24v27.47c0,.16-.06.29-.18.4-.12.11-.27.17-.45.17h-4.81c-.18,0-.33-.05-.45-.17-.12-.11-.18-.24-.18-.4v-27.47c0-.16-.09-.24-.26-.24h-6.28c-.18,0-.32-.05-.44-.17-.12-.11-.18-.24-.18-.4v-3.58c0-.15.06-.29.18-.4.12-.11.27-.17.44-.17h19.52c.18,0,.32.06.44.17Z"/>
    <path class="cls-1" d="M157.51,354.76l-4.45-13.52c-.07-.13-.16-.19-.26-.19h-2.77c-.18,0-.26.08-.26.24v13.38c0,.16-.06.29-.18.4-.12.11-.27.17-.45.17h-4.81c-.17,0-.33-.05-.45-.17-.12-.11-.18-.24-.18-.4v-31.85c0-.15.06-.29.18-.4.12-.11.27-.17.45-.17h9.84c1.85,0,3.48.4,4.89,1.21,1.41.8,2.51,1.93,3.3,3.39.79,1.46,1.18,3.13,1.18,5.02s-.42,3.63-1.26,5.04c-.83,1.42-2.01,2.48-3.5,3.2-.14.03-.19.13-.16.28l5.13,14.18c.04.07.05.14.05.24,0,.28-.19.42-.57.42h-5.02c-.35,0-.58-.16-.68-.47ZM149.77,327.2v9.37c0,.16.09.24.26.24h3.19c1.26,0,2.28-.44,3.06-1.32.79-.88,1.18-2.07,1.18-3.58s-.39-2.71-1.18-3.6-1.8-1.34-3.06-1.34h-3.19c-.18,0-.26.08-.26.24Z"/>
    <path class="cls-1" d="M185.91,326.79c-.12.11-.27.17-.44.17h-11.3c-.17,0-.26.08-.26.24v8.91c0,.15.09.23.26.23h6.7c.17,0,.32.06.44.17s.18.24.18.4v3.63c0,.15-.06.29-.18.4s-.27.16-.44.16h-6.7c-.17,0-.26.08-.26.24v8.95c0,.15.09.23.26.23h11.3c.18,0,.32.06.44.17.12.11.18.24.18.4v3.58c0,.16-.06.29-.18.4-.12.11-.27.17-.44.17h-17.01c-.17,0-.33-.05-.45-.17-.12-.11-.18-.24-.18-.4v-31.85c0-.15.06-.29.18-.4.12-.11.27-.17.45-.17h17.01c.18,0,.32.06.44.17.12.11.18.24.18.4v3.58c0,.16-.06.29-.18.4Z"/>
    <path class="cls-1" d="M219.09,326.79c-.12.11-.27.17-.44.17h-11.25c-.18,0-.26.08-.26.24v8.91c0,.15.09.23.26.23h6.65c.18,0,.32.06.44.17.12.11.18.24.18.4v3.63c0,.15-.06.29-.18.4-.12.11-.27.16-.44.16h-6.65c-.18,0-.26.08-.26.24v13.34c0,.16-.06.29-.18.4-.12.11-.27.17-.45.17h-4.81c-.17,0-.33-.05-.45-.17-.12-.11-.18-.24-.18-.4v-31.85c0-.15.06-.29.18-.4.12-.11.27-.17.45-.17h16.95c.18,0,.32.06.44.17.12.11.18.24.18.4v3.58c0,.16-.06.29-.18.4Z"/>
    <path class="cls-1" d="M224.9,353.16c-1.83-1.63-2.75-3.8-2.75-6.51v-15.83c0-2.7.92-4.87,2.75-6.5,1.83-1.63,4.25-2.45,7.25-2.45s5.42.82,7.27,2.45c1.85,1.63,2.77,3.8,2.77,6.5v15.83c0,2.7-.92,4.87-2.77,6.51-1.85,1.63-4.27,2.45-7.27,2.45s-5.42-.82-7.25-2.45ZM235.02,349.79c.73-.74,1.1-1.7,1.1-2.9v-16.3c0-1.19-.37-2.16-1.1-2.9-.73-.74-1.69-1.11-2.88-1.11s-2.14.37-2.85,1.11c-.72.74-1.07,1.7-1.07,2.9v16.3c0,1.2.36,2.16,1.07,2.9.72.74,1.67,1.11,2.85,1.11s2.15-.37,2.88-1.11Z"/>
    <path class="cls-1" d="M261.03,354.76l-4.45-13.52c-.07-.13-.16-.19-.26-.19h-2.77c-.17,0-.26.08-.26.24v13.38c0,.16-.06.29-.18.4-.12.11-.27.17-.45.17h-4.81c-.17,0-.33-.05-.45-.17-.12-.11-.18-.24-.18-.4v-31.85c0-.15.06-.29.18-.4.12-.11.27-.17.45-.17h9.84c1.85,0,3.48.4,4.89,1.21,1.41.8,2.51,1.93,3.3,3.39.79,1.46,1.18,3.13,1.18,5.02s-.42,3.63-1.26,5.04c-.83,1.42-2.01,2.48-3.5,3.2-.14.03-.19.13-.16.28l5.13,14.18c.04.07.05.14.05.24,0,.28-.19.42-.57.42h-5.02c-.35,0-.58-.16-.68-.47ZM253.29,327.2v9.37c0,.16.09.24.26.24h3.19c1.26,0,2.28-.44,3.06-1.32.79-.88,1.18-2.07,1.18-3.58s-.39-2.71-1.18-3.6-1.8-1.34-3.06-1.34h-3.19c-.17,0-.26.08-.26.24Z"/>
    <path class="cls-1" d="M295.99,354.71l-.99-4.95c0-.15-.11-.24-.31-.24h-7.64c-.21,0-.31.08-.31.24l-.99,4.95c-.04.35-.26.52-.68.52h-4.76c-.49,0-.68-.2-.57-.61l7.75-31.85c.07-.35.3-.52.68-.52h5.55c.38,0,.61.18.68.52l7.75,31.85v.19c0,.28-.19.42-.58.42h-4.86c-.42,0-.65-.17-.68-.52ZM287.94,345.24h5.81c.21,0,.29-.08.26-.24l-3.04-14.89c-.03-.09-.09-.14-.15-.14-.07,0-.12.05-.16.14l-2.98,14.89c-.03.16.05.24.26.24Z"/>
    <path class="cls-1" d="M319.49,354.76l-4.44-13.52c-.07-.13-.16-.19-.26-.19h-2.77c-.18,0-.26.08-.26.24v13.38c0,.16-.06.29-.18.4-.12.11-.27.17-.45.17h-4.81c-.17,0-.33-.05-.45-.17-.12-.11-.18-.24-.18-.4v-31.85c0-.15.06-.29.18-.4.12-.11.27-.17.45-.17h9.84c1.85,0,3.48.4,4.89,1.21,1.41.8,2.51,1.93,3.3,3.39.79,1.46,1.18,3.13,1.18,5.02s-.42,3.63-1.26,5.04c-.83,1.42-2.01,2.48-3.5,3.2-.14.03-.19.13-.16.28l5.13,14.18c.04.07.05.14.05.24,0,.28-.19.42-.57.42h-5.02c-.35,0-.58-.16-.68-.47ZM311.75,327.2v9.37c0,.16.09.24.26.24h3.19c1.26,0,2.28-.44,3.06-1.32.79-.88,1.18-2.07,1.18-3.58s-.39-2.71-1.18-3.6-1.8-1.34-3.06-1.34h-3.19c-.18,0-.26.08-.26.24Z"/>
    <path class="cls-1" d="M349.04,322.41c.12.11.18.24.18.4v3.58c0,.16-.06.29-.18.4-.12.11-.27.17-.44.17h-6.65c-.17,0-.26.08-.26.24v27.47c0,.16-.06.29-.18.4-.12.11-.27.17-.45.17h-4.81c-.17,0-.33-.05-.45-.17-.12-.11-.18-.24-.18-.4v-27.47c0-.16-.09-.24-.26-.24h-6.28c-.17,0-.32-.05-.44-.17-.12-.11-.18-.24-.18-.4v-3.58c0-.15.06-.29.18-.4.12-.11.27-.17.44-.17h19.52c.17,0,.32.06.44.17Z"/>
    <path class="cls-1" d="M353.64,355.06c-.12-.11-.18-.24-.18-.4v-31.85c0-.15.06-.29.18-.4.12-.11.27-.17.45-.17h4.81c.18,0,.33.06.45.17.12.11.18.24.18.4v31.85c0,.16-.06.29-.18.4-.12.11-.27.17-.45.17h-4.81c-.18,0-.33-.05-.45-.17Z"/>
    <path class="cls-1" d="M383.21,326.79c-.12.11-.27.17-.44.17h-11.25c-.18,0-.26.08-.26.24v8.91c0,.15.09.23.26.23h6.65c.18,0,.32.06.44.17.12.11.18.24.18.4v3.63c0,.15-.06.29-.18.4-.12.11-.27.16-.44.16h-6.65c-.18,0-.26.08-.26.24v13.34c0,.16-.06.29-.18.4-.12.11-.27.17-.45.17h-4.81c-.17,0-.33-.05-.45-.17-.12-.11-.18-.24-.18-.4v-31.85c0-.15.06-.29.18-.4.12-.11.27-.17.45-.17h16.95c.18,0,.32.06.44.17.12.11.18.24.18.4v3.58c0,.16-.06.29-.18.4Z"/>
    <path class="cls-1" d="M387.08,355.06c-.12-.11-.18-.24-.18-.4v-31.85c0-.15.06-.29.18-.4.12-.11.27-.17.45-.17h4.81c.17,0,.33.06.45.17.12.11.18.24.18.4v31.85c0,.16-.06.29-.18.4-.12.11-.27.17-.45.17h-4.81c-.17,0-.33-.05-.45-.17Z"/>
    <path class="cls-1" d="M400.69,353.18c-1.8-1.62-2.69-3.76-2.69-6.43v-16.07c0-2.7.9-4.84,2.69-6.43,1.8-1.58,4.18-2.38,7.14-2.38s5.41.79,7.22,2.38c1.82,1.59,2.72,3.73,2.72,6.43v.57c0,.16-.06.3-.18.42-.12.13-.27.19-.44.19l-4.87.19c-.42,0-.63-.19-.63-.57v-1.18c0-1.1-.35-1.99-1.05-2.69-.7-.69-1.62-1.04-2.77-1.04s-2.02.35-2.72,1.04c-.7.69-1.05,1.59-1.05,2.69v16.87c0,1.1.35,2,1.05,2.68.7.69,1.6,1.04,2.72,1.04s2.08-.35,2.77-1.04c.7-.69,1.05-1.58,1.05-2.68v-1.18c0-.15.06-.29.18-.4.12-.11.27-.17.44-.17l4.87.19c.17,0,.32.05.44.16.12.11.18.24.18.4v.56c0,2.67-.91,4.82-2.72,6.43-1.81,1.62-4.22,2.43-7.22,2.43s-5.35-.81-7.14-2.43Z"/>
    <path class="cls-1" d="M422.72,355.06c-.12-.11-.18-.24-.18-.4v-31.85c0-.15.06-.29.18-.4.12-.11.27-.17.45-.17h4.81c.17,0,.33.06.45.17.12.11.18.24.18.4v31.85c0,.16-.06.29-.18.4-.12.11-.27.17-.45.17h-4.81c-.17,0-.33-.05-.45-.17Z"/>
    <path class="cls-1" d="M448.45,354.71l-.99-4.95c0-.15-.11-.24-.31-.24h-7.64c-.21,0-.31.08-.31.24l-.99,4.95c-.04.35-.26.52-.68.52h-4.76c-.49,0-.68-.2-.57-.61l7.75-31.85c.07-.35.3-.52.68-.52h5.55c.38,0,.61.18.68.52l7.75,31.85v.19c0,.28-.19.42-.58.42h-4.86c-.42,0-.65-.17-.68-.52ZM440.39,345.24h5.81c.21,0,.29-.08.26-.24l-3.04-14.89c-.03-.09-.09-.14-.15-.14-.07,0-.12.05-.16.14l-2.98,14.89c-.03.16.05.24.26.24Z"/>
    <path class="cls-1" d="M458.31,355.06c-.12-.11-.18-.24-.18-.4v-31.85c0-.15.06-.29.18-.4.12-.11.27-.17.45-.17h4.81c.18,0,.33.06.45.17.12.11.18.24.18.4v27.47c0,.15.09.23.26.23h11.3c.18,0,.32.06.44.17.12.11.18.24.18.4v3.58c0,.16-.06.29-.18.4-.12.11-.27.17-.44.17h-17.01c-.17,0-.33-.05-.45-.17Z"/>
    <path class="cls-1" d="M490.5,355.06c-.12-.11-.18-.24-.18-.4v-31.85c0-.15.06-.29.18-.4.12-.11.27-.17.45-.17h4.81c.17,0,.33.06.45.17.12.11.18.24.18.4v31.85c0,.16-.06.29-.18.4-.12.11-.27.17-.45.17h-4.81c-.18,0-.33-.05-.45-.17Z"/>
    <path class="cls-1" d="M517.09,322.41c.12-.11.27-.17.44-.17h4.76c.18,0,.32.06.44.17.12.11.18.24.18.4v31.85c0,.16-.06.29-.18.4-.12.11-.27.17-.44.17h-5.49c-.35,0-.58-.16-.68-.47l-7.8-19.98c-.04-.09-.1-.13-.18-.12-.09.02-.13.07-.13.17l.05,19.84c0,.16-.06.29-.18.4-.12.11-.27.17-.44.17h-4.76c-.17,0-.33-.05-.45-.17-.12-.11-.18-.24-.18-.4v-31.85c0-.15.06-.29.18-.4.12-.11.27-.17.45-.17h5.39c.35,0,.57.16.68.47l7.85,19.84c.04.09.1.13.18.12.09-.02.13-.07.13-.16v-19.7c0-.15.06-.29.18-.4Z"/>
    <path class="cls-1" d="M547.81,322.41c.12.11.18.24.18.4v3.58c0,.16-.06.29-.18.4-.12.11-.27.17-.44.17h-6.65c-.18,0-.26.08-.26.24v27.47c0,.16-.06.29-.18.4-.12.11-.27.17-.45.17h-4.81c-.18,0-.33-.05-.45-.17-.12-.11-.18-.24-.18-.4v-27.47c0-.16-.09-.24-.26-.24h-6.28c-.18,0-.32-.05-.44-.17-.12-.11-.18-.24-.18-.4v-3.58c0-.15.06-.29.18-.4.12-.11.27-.17.44-.17h19.52c.18,0,.32.06.44.17Z"/>
    <path class="cls-1" d="M570.31,326.79c-.12.11-.27.17-.44.17h-11.3c-.17,0-.26.08-.26.24v8.91c0,.15.09.23.26.23h6.7c.17,0,.32.06.44.17s.18.24.18.4v3.63c0,.15-.06.29-.18.4s-.27.16-.44.16h-6.7c-.17,0-.26.08-.26.24v8.95c0,.15.09.23.26.23h11.3c.18,0,.32.06.44.17.12.11.18.24.18.4v3.58c0,.16-.06.29-.18.4-.12.11-.27.17-.44.17h-17.01c-.17,0-.33-.05-.45-.17-.12-.11-.18-.24-.18-.4v-31.85c0-.15.06-.29.18-.4.12-.11.27-.17.45-.17h17.01c.18,0,.32.06.44.17.12.11.18.24.18.4v3.58c0,.16-.06.29-.18.4Z"/>
    <path class="cls-1" d="M575.18,355.06c-.12-.11-.18-.24-.18-.4v-31.85c0-.15.06-.29.18-.4.12-.11.27-.17.45-.17h4.81c.18,0,.33.06.45.17.12.11.18.24.18.4v27.47c0,.15.09.23.26.23h11.3c.18,0,.32.06.44.17.12.11.18.24.18.4v3.58c0,.16-.06.29-.18.4-.12.11-.27.17-.44.17h-17.01c-.17,0-.33-.05-.45-.17Z"/>
    <path class="cls-1" d="M596.9,355.06c-.12-.11-.18-.24-.18-.4v-31.85c0-.15.06-.29.18-.4.12-.11.27-.17.45-.17h4.81c.18,0,.33.06.45.17.12.11.18.24.18.4v27.47c0,.15.09.23.26.23h11.3c.18,0,.32.06.44.17.12.11.18.24.18.4v3.58c0,.16-.06.29-.18.4-.12.11-.27.17-.44.17h-17.01c-.17,0-.33-.05-.45-.17Z"/>
    <path class="cls-1" d="M618.62,355.06c-.12-.11-.18-.24-.18-.4v-31.85c0-.15.06-.29.18-.4.12-.11.27-.17.45-.17h4.81c.18,0,.33.06.45.17.12.11.18.24.18.4v31.85c0,.16-.06.29-.18.4-.12.11-.27.17-.45.17h-4.81c-.17,0-.33-.05-.45-.17Z"/>
    <path class="cls-1" d="M632.23,353.28c-1.8-1.56-2.7-3.62-2.7-6.2v-16.68c0-2.58.9-4.64,2.7-6.2s4.18-2.33,7.14-2.33,5.36.78,7.2,2.33,2.75,3.64,2.75,6.24v1.84c0,.16-.06.29-.18.4s-.27.17-.44.17h-4.82c-.17,0-.33-.06-.45-.17s-.18-.24-.18-.4v-1.93c0-1.13-.36-2.04-1.07-2.73-.72-.69-1.65-1.04-2.8-1.04s-2.08.35-2.77,1.04c-.7.69-1.05,1.6-1.05,2.73v16.78c0,1.13.35,2.04,1.05,2.73.7.69,1.62,1.04,2.77,1.04s2.08-.35,2.8-1.04c.71-.69,1.07-1.6,1.07-2.73v-4.52c0-.16-.09-.24-.26-.24h-3.19c-.18,0-.32-.05-.44-.17-.12-.11-.18-.24-.18-.4v-3.44c0-.15.06-.29.18-.4s.27-.17.44-.17h8.9c.17,0,.32.06.44.17s.18.24.18.4v8.72c0,2.57-.92,4.64-2.75,6.2s-4.23,2.33-7.2,2.33-5.35-.78-7.14-2.33Z"/>
    <path class="cls-1" d="M672.41,326.79c-.12.11-.27.17-.44.17h-11.3c-.18,0-.26.08-.26.24v8.91c0,.15.09.23.26.23h6.7c.17,0,.32.06.44.17s.18.24.18.4v3.63c0,.15-.06.29-.18.4s-.27.16-.44.16h-6.7c-.18,0-.26.08-.26.24v8.95c0,.15.09.23.26.23h11.3c.17,0,.32.06.44.17.12.11.18.24.18.4v3.58c0,.16-.06.29-.18.4-.12.11-.27.17-.44.17h-17.01c-.18,0-.33-.05-.45-.17-.12-.11-.18-.24-.18-.4v-31.85c0-.15.06-.29.18-.4.12-.11.27-.17.45-.17h17.01c.17,0,.32.06.44.17.12.11.18.24.18.4v3.58c0,.16-.06.29-.18.4Z"/>
    <path class="cls-1" d="M692.15,322.41c.12-.11.27-.17.44-.17h4.76c.17,0,.32.06.44.17.12.11.18.24.18.4v31.85c0,.16-.06.29-.18.4-.12.11-.27.17-.44.17h-5.5c-.35,0-.58-.16-.68-.47l-7.8-19.98c-.04-.09-.1-.13-.18-.12-.09.02-.13.07-.13.17l.05,19.84c0,.16-.06.29-.18.4-.12.11-.27.17-.44.17h-4.76c-.18,0-.33-.05-.45-.17-.12-.11-.18-.24-.18-.4v-31.85c0-.15.06-.29.18-.4.12-.11.27-.17.45-.17h5.39c.35,0,.57.16.68.47l7.85,19.84c.04.09.1.13.18.12.09-.02.13-.07.13-.16v-19.7c0-.15.06-.29.18-.4Z"/>
    <path class="cls-1" d="M705.7,353.18c-1.8-1.62-2.69-3.76-2.69-6.43v-16.07c0-2.7.9-4.84,2.69-6.43,1.8-1.58,4.18-2.38,7.14-2.38s5.41.79,7.22,2.38c1.82,1.59,2.72,3.73,2.72,6.43v.57c0,.16-.06.3-.18.42-.12.13-.27.19-.44.19l-4.87.19c-.42,0-.63-.19-.63-.57v-1.18c0-1.1-.35-1.99-1.05-2.69-.7-.69-1.62-1.04-2.77-1.04s-2.02.35-2.72,1.04c-.7.69-1.05,1.59-1.05,2.69v16.87c0,1.1.35,2,1.05,2.68.7.69,1.6,1.04,2.72,1.04s2.08-.35,2.77-1.04c.7-.69,1.05-1.58,1.05-2.68v-1.18c0-.15.06-.29.18-.4.12-.11.27-.17.44-.17l4.87.19c.17,0,.32.05.44.16.12.11.18.24.18.4v.56c0,2.67-.91,4.82-2.72,6.43-1.81,1.62-4.22,2.43-7.22,2.43s-5.35-.81-7.14-2.43Z"/>
    <path class="cls-1" d="M745.63,326.79c-.12.11-.27.17-.44.17h-11.3c-.18,0-.26.08-.26.24v8.91c0,.15.09.23.26.23h6.7c.17,0,.32.06.44.17s.18.24.18.4v3.63c0,.15-.06.29-.18.4s-.27.16-.44.16h-6.7c-.18,0-.26.08-.26.24v8.95c0,.15.09.23.26.23h11.3c.17,0,.32.06.44.17.12.11.18.24.18.4v3.58c0,.16-.06.29-.18.4-.12.11-.27.17-.44.17h-17.01c-.17,0-.33-.05-.45-.17-.12-.11-.18-.24-.18-.4v-31.85c0-.15.06-.29.18-.4.12-.11.27-.17.45-.17h17.01c.17,0,.32.06.44.17.12.11.18.24.18.4v3.58c0,.16-.06.29-.18.4Z"/>
    <path class="cls-1" d="M786.32,354.9c0,.22-.17.33-.52.33h-5.18c-.31,0-.57-.11-.79-.33l-1.52-1.84c-.1-.1-.23-.11-.37-.05-2.51,1.76-5.39,2.64-8.63,2.64-3,0-5.36-.69-7.09-2.07-1.73-1.38-2.59-3.39-2.59-6.03,0-2.07.52-3.84,1.57-5.3,1.05-1.46,2.48-2.83,4.29-4.12.14-.09.16-.2.05-.33-1.67-2.1-2.76-3.65-3.24-4.64-.49-.99-.73-2.06-.73-3.23,0-2.45.81-4.4,2.43-5.87,1.62-1.46,3.78-2.19,6.46-2.19,1.78,0,3.37.34,4.76,1.01,1.39.68,2.49,1.62,3.3,2.85.8,1.22,1.2,2.64,1.2,4.24,0,1.95-.55,3.62-1.65,5.02-1.1,1.4-2.59,2.74-4.47,4.03-.14.09-.15.2-.05.33.14.19.8,1.01,1.99,2.45l2.72,3.35c.07.06.14.09.21.09s.12-.03.15-.09c.88-1.1,1.68-2.29,2.41-3.58.21-.35.5-.42.89-.24l3.56,1.84c.35.22.42.47.21.75-1.18,2.04-2.41,3.82-3.66,5.32-.11.13-.12.24-.05.33.87.97,2.27,2.62,4.19,4.95.11.13.15.25.15.38ZM774.71,349.1c.14-.09.16-.2.05-.33l-1.94-2.26-3.61-4.24c-.1-.13-.23-.14-.37-.05-2.09,1.57-3.14,3.2-3.14,4.9,0,1.1.37,2.01,1.1,2.73.73.72,1.76,1.09,3.09,1.09,1.57,0,3.17-.61,4.82-1.84ZM768.45,327.74c-.54.61-.81,1.4-.81,2.38,0,.69.13,1.32.39,1.89.26.56.9,1.51,1.91,2.83.11.16.23.19.37.09,1.08-.79,1.91-1.57,2.49-2.36.57-.78.86-1.63.86-2.54s-.29-1.71-.86-2.31c-.58-.59-1.3-.9-2.17-.9s-1.63.31-2.17.92Z"/>
    <path class="cls-1" d="M815.48,354.76l-4.45-13.52c-.07-.13-.16-.19-.26-.19h-2.77c-.17,0-.26.08-.26.24v13.38c0,.16-.06.29-.18.4-.12.11-.27.17-.45.17h-4.81c-.18,0-.33-.05-.45-.17-.12-.11-.18-.24-.18-.4v-31.85c0-.15.06-.29.18-.4.12-.11.27-.17.45-.17h9.84c1.85,0,3.48.4,4.89,1.21,1.41.8,2.51,1.93,3.3,3.39.79,1.46,1.18,3.13,1.18,5.02s-.42,3.63-1.26,5.04c-.83,1.42-2.01,2.48-3.5,3.2-.14.03-.19.13-.16.28l5.13,14.18c.04.07.05.14.05.24,0,.28-.19.42-.57.42h-5.02c-.35,0-.58-.16-.68-.47ZM807.73,327.2v9.37c0,.16.09.24.26.24h3.19c1.26,0,2.28-.44,3.06-1.32.79-.88,1.18-2.07,1.18-3.58s-.39-2.71-1.18-3.6c-.79-.9-1.8-1.34-3.06-1.34h-3.19c-.17,0-.26.08-.26.24Z"/>
    <path class="cls-1" d="M827.91,353.16c-1.83-1.63-2.75-3.8-2.75-6.51v-15.83c0-2.7.92-4.87,2.75-6.5,1.83-1.63,4.25-2.45,7.25-2.45s5.42.82,7.27,2.45c1.85,1.63,2.77,3.8,2.77,6.5v15.83c0,2.7-.92,4.87-2.77,6.51-1.85,1.63-4.27,2.45-7.27,2.45s-5.42-.82-7.25-2.45ZM838.04,349.79c.73-.74,1.1-1.7,1.1-2.9v-16.3c0-1.19-.37-2.16-1.1-2.9-.73-.74-1.69-1.11-2.88-1.11s-2.14.37-2.85,1.11c-.72.74-1.08,1.7-1.08,2.9v16.3c0,1.2.36,2.16,1.08,2.9.72.74,1.66,1.11,2.85,1.11s2.15-.37,2.88-1.11Z"/>
    <path class="cls-1" d="M867.37,352.87c-1.87,1.57-4.3,2.36-7.3,2.36h-9.21c-.17,0-.33-.05-.45-.17-.12-.11-.18-.24-.18-.4v-31.85c0-.15.06-.29.18-.4.12-.11.27-.17.45-.17h8.27c3.31,0,5.91.76,7.8,2.26,1.88,1.51,2.83,3.71,2.83,6.6,0,3.23-1.27,5.54-3.82,6.92-.18.09-.21.19-.1.28,1.36.79,2.42,1.84,3.19,3.15.77,1.32,1.15,2.89,1.15,4.71,0,2.89-.94,5.12-2.8,6.69ZM856.3,327.2v8.76c0,.16.09.24.26.24h2.67c1.43,0,2.54-.39,3.35-1.18.81-.78,1.21-1.9,1.21-3.35s-.4-2.67-1.21-3.49c-.8-.82-1.92-1.22-3.35-1.22h-2.67c-.18,0-.26.08-.26.24ZM862.89,349.15c.8-.88,1.2-2.12,1.2-3.72s-.4-2.91-1.2-3.84c-.81-.92-1.91-1.39-3.3-1.39h-3.04c-.18,0-.26.08-.26.23v9.8c0,.16.09.24.26.24h3.04c1.39,0,2.49-.44,3.3-1.32Z"/>
    <path class="cls-1" d="M876.53,353.16c-1.83-1.63-2.75-3.8-2.75-6.51v-15.83c0-2.7.92-4.87,2.75-6.5,1.83-1.63,4.25-2.45,7.25-2.45s5.42.82,7.27,2.45c1.85,1.63,2.77,3.8,2.77,6.5v15.83c0,2.7-.92,4.87-2.77,6.51-1.85,1.63-4.27,2.45-7.27,2.45s-5.42-.82-7.25-2.45ZM886.65,349.79c.73-.74,1.1-1.7,1.1-2.9v-16.3c0-1.19-.37-2.16-1.1-2.9-.73-.74-1.69-1.11-2.88-1.11s-2.14.37-2.85,1.11c-.72.74-1.07,1.7-1.07,2.9v16.3c0,1.2.36,2.16,1.07,2.9.72.74,1.67,1.11,2.85,1.11s2.15-.37,2.88-1.11Z"/>
    <path class="cls-1" d="M918.08,322.41c.12.11.18.24.18.4v3.58c0,.16-.06.29-.18.4-.12.11-.27.17-.44.17h-6.65c-.17,0-.26.08-.26.24v27.47c0,.16-.06.29-.18.4-.12.11-.27.17-.45.17h-4.81c-.17,0-.33-.05-.45-.17-.12-.11-.18-.24-.18-.4v-27.47c0-.16-.09-.24-.26-.24h-6.28c-.17,0-.32-.05-.44-.17-.12-.11-.18-.24-.18-.4v-3.58c0-.15.06-.29.18-.4.12-.11.27-.17.44-.17h19.52c.17,0,.32.06.44.17Z"/>
    <path class="cls-1" d="M922.68,355.06c-.12-.11-.18-.24-.18-.4v-31.85c0-.15.06-.29.18-.4.12-.11.27-.17.45-.17h4.81c.18,0,.33.06.45.17.12.11.18.24.18.4v31.85c0,.16-.06.29-.18.4-.12.11-.27.17-.45.17h-4.81c-.18,0-.33-.05-.45-.17Z"/>
    <path class="cls-1" d="M936.29,353.18c-1.8-1.62-2.69-3.76-2.69-6.43v-16.07c0-2.7.9-4.84,2.69-6.43,1.8-1.58,4.18-2.38,7.14-2.38s5.41.79,7.22,2.38c1.82,1.59,2.72,3.73,2.72,6.43v.57c0,.16-.06.3-.18.42-.12.13-.27.19-.44.19l-4.87.19c-.42,0-.63-.19-.63-.57v-1.18c0-1.1-.35-1.99-1.05-2.69-.7-.69-1.62-1.04-2.77-1.04s-2.02.35-2.72,1.04c-.7.69-1.05,1.59-1.05,2.69v16.87c0,1.1.35,2,1.05,2.68.7.69,1.6,1.04,2.72,1.04s2.08-.35,2.77-1.04c.7-.69,1.05-1.58,1.05-2.68v-1.18c0-.15.06-.29.18-.4.12-.11.27-.17.44-.17l4.87.19c.17,0,.32.05.44.16s.18.24.18.4v.56c0,2.67-.91,4.82-2.72,6.43-1.81,1.62-4.22,2.43-7.22,2.43s-5.35-.81-7.14-2.43Z"/>
    <path class="cls-1" d="M959.76,353.25c-1.78-1.57-2.67-3.63-2.67-6.17v-1.22c0-.16.06-.29.18-.4.12-.11.27-.16.44-.16h4.76c.18,0,.33.05.45.16.12.11.18.24.18.4v.94c0,1.22.34,2.21,1.02,2.97.68.75,1.56,1.13,2.65,1.13s1.97-.35,2.67-1.06c.7-.71,1.05-1.64,1.05-2.8,0-.82-.19-1.52-.57-2.12-.38-.59-.92-1.16-1.62-1.7-.7-.53-1.82-1.3-3.35-2.31-1.75-1.13-3.15-2.13-4.21-3.02-1.07-.88-1.95-1.94-2.67-3.18-.72-1.24-1.08-2.68-1.08-4.31,0-2.61.88-4.68,2.62-6.22,1.75-1.54,4.05-2.31,6.91-2.31s5.24.81,7.01,2.43c1.78,1.62,2.67,3.76,2.67,6.43v1.13c0,.15-.06.29-.18.4s-.27.17-.44.17h-4.71c-.18,0-.32-.06-.44-.17-.12-.11-.18-.24-.18-.4v-1.23c0-1.22-.34-2.21-1.02-2.95-.68-.74-1.58-1.11-2.69-1.11-1.05,0-1.9.34-2.56,1.01-.66.68-.99,1.61-.99,2.8s.36,2.09,1.08,2.87c.71.79,2.12,1.87,4.21,3.25,2.12,1.41,3.73,2.57,4.81,3.46,1.08.9,1.92,1.88,2.52,2.95.59,1.07.89,2.34.89,3.81,0,2.67-.89,4.82-2.67,6.43-1.78,1.62-4.12,2.43-7.01,2.43s-5.23-.79-7.01-2.36Z"/>
  </g>
  <path class="cls-1" d="M281.64,205.59c-1.69-.6-3.52-.93-5.42-.93-2.02,0-3.95.38-5.74,1.06-5.97,2.31-10.22,8.11-10.22,14.92s4.25,12.59,10.22,14.9c1.79.68,3.71,1.06,5.74,1.06,1.9,0,3.73-.33,5.42-.93,6.15-2.23,10.55-8.11,10.55-15.03s-4.41-12.81-10.55-15.04ZM281.64,224.21c-1.17,1.75-3.16,2.91-5.42,2.91-2.5,0-4.66-1.42-5.74-3.49-.47-.89-.74-1.91-.74-2.99s.27-2.1.74-3c1.08-2.07,3.24-3.49,5.74-3.49,2.26,0,4.25,1.15,5.42,2.91.68,1.03,1.07,2.26,1.07,3.59s-.39,2.54-1.07,3.57Z"/>
</svg>